<svg width="57" height="57" viewBox="0 0 57 57" fill="none" xmlns="http://www.w3.org/2000/svg">
<path d="M32.7102 40.6887H24.6136C19.7667 40.6887 15.8835 37.4979 15.8835 33.6153V23.5174C15.8835 19.7576 19.617 16.444 24.6136 16.444H32.7102C37.5572 16.444 41.4403 19.6347 41.4403 23.5174V33.6153C41.4403 37.37 37.551 40.6887 32.7102 40.6887Z" fill="#C3E5B5" stroke="#283864" stroke-miterlimit="10"/>
<path d="M36.4205 6.77626C36.4205 10.1546 33.0439 13.0525 28.662 13.0525C24.28 13.0525 20.9034 10.1546 20.9034 6.77626C20.9034 3.39793 24.28 0.5 28.662 0.5C33.0439 0.5 36.4205 3.39793 36.4205 6.77626Z" fill="#C3E5B5" stroke="#283864" stroke-miterlimit="10"/>
<path d="M42.9119 27.7692H13.6022V42.1187H42.9119V27.7692Z" fill="#C3E5B5"/>
<path d="M11.3492 47.2841L11.3492 47.2834C11.3459 47.1542 11.3056 47.0485 11.2685 46.9746C11.2312 46.9002 11.1852 46.8351 11.1518 46.7895C11.1305 46.7604 11.1108 46.7342 11.0921 46.7094C11.043 46.6441 11.0006 46.5878 10.9525 46.5089L10.9084 46.4364L10.8427 46.3826C10.8091 46.355 10.7619 46.3003 10.6707 46.1881C10.6668 46.1833 10.6628 46.1783 10.6586 46.1731C10.5872 46.0851 10.4781 45.9505 10.3569 45.8511L9.06727 44.7929C6.5233 42.5739 4.47216 39.9774 3.21319 37.0075L0.661932 30.9892V30.958H0.662032L0.661832 30.948L0.500006 22.8484C0.50281 21.7203 1.5148 20.8286 2.75284 20.8286C3.08907 20.8286 3.31543 20.8341 3.53466 20.9241L4.14834 21.1758L4.22139 20.5165C4.34947 19.3606 5.38037 18.437 6.96307 18.437C7.84629 18.437 8.49079 18.6781 8.90584 19.0318C9.31422 19.3797 9.53978 19.8686 9.53978 20.4615V29.3636V29.4903L9.60013 29.6017L10.8956 31.9933L11.0374 32.2552H11.3352C11.5506 32.2552 11.7259 32.1683 11.8402 32.0979C11.9348 32.0397 12.0245 31.9688 12.0949 31.9114C13.2052 31.3683 14.8651 31.4922 15.9809 32.7511L15.9808 32.7513L15.9893 32.7604L20.1996 37.2779L20.2622 37.345L20.3445 37.3855L24.3828 39.3736C26.0772 40.3061 26.825 42.2919 26.0832 44.4829L26.0824 44.4855C25.5823 45.9899 25.4105 47.2348 25.4091 48.3496C25.2548 51.1745 25.8363 52.8163 26.1803 53.7874C26.1943 53.8268 26.2078 53.8651 26.2209 53.9023C26.2321 54.1323 26.2837 54.2981 26.3275 54.4239C26.3773 54.5668 26.3807 54.578 26.3807 54.6082V54.7486L26.4537 54.8684C26.4601 54.8789 26.4765 54.9181 26.453 54.9808C26.4297 55.043 26.3407 55.1937 26.0121 55.3555L25.9958 55.3635L25.9801 55.3727C25.5143 55.6457 24.5595 55.8717 23.2609 56.0215C21.9903 56.1681 20.4723 56.2341 18.946 56.2341C17.2635 56.2341 15.5845 56.1354 14.1714 55.9558C12.7569 55.776 11.671 55.5221 11.1013 55.2382C10.7748 55.0194 10.715 54.8765 10.7002 54.8279C10.691 54.7975 10.6873 54.7648 10.6888 54.7148C10.6896 54.6881 10.6916 54.662 10.6945 54.6238L10.6949 54.6192L10.695 54.6179C10.6977 54.5826 10.7017 54.5297 10.7017 54.4754C10.7017 54.3307 10.7036 54.2839 10.7119 54.2427C10.7175 54.2155 10.7302 54.1703 10.7906 54.0712L10.8117 54.0367L10.8269 53.9992L10.8303 53.9908C10.9088 53.7975 10.9949 53.5857 11.0608 53.3875C11.121 53.2063 11.1802 52.9921 11.1869 52.7863C11.35 51.5648 11.3899 50.1903 11.3899 49.1275C11.3899 48.5898 11.3797 48.1278 11.3694 47.7998C11.3643 47.6358 11.3592 47.5051 11.3553 47.4151C11.3534 47.3701 11.3517 47.3352 11.3506 47.3114L11.3492 47.2841Z" fill="#C3E5B5" stroke="#283864" stroke-miterlimit="10"/>
<mask id="path-5-inside-1_1161_115" fill="white">
<path d="M3.88636 20.4617L4.21022 29.098L5.99146 33.4826L8.90622 37.4685"/>
</mask>
<path d="M3.88636 20.4617L4.21022 29.098L5.99146 33.4826L8.90622 37.4685" fill="#C3E5B5"/>
<path d="M4.21022 29.098L3.21092 29.1354L3.21752 29.3113L3.28376 29.4744L4.21022 29.098ZM5.99146 33.4826L5.065 33.8589L5.11143 33.9732L5.18426 34.0728L5.99146 33.4826ZM2.88706 20.4991L3.21092 29.1354L5.20952 29.0605L4.88566 20.4242L2.88706 20.4991ZM3.28376 29.4744L5.065 33.8589L6.91793 33.1062L5.13669 28.7216L3.28376 29.4744ZM5.18426 34.0728L8.09902 38.0588L9.71343 36.8783L6.79867 32.8923L5.18426 34.0728Z" fill="#283864" mask="url(#path-5-inside-1_1161_115)"/>
<mask id="path-7-inside-2_1161_115" fill="white">
<path d="M11.4972 31.7554C11.3352 31.8882 10.8494 32.5526 11.1733 33.4826C11.3352 34.1469 11.983 34.5455 12.1449 34.6784C13.6023 36.1399 15.0597 37.6015 16.5171 39.063"/>
</mask>
<path d="M11.4972 31.7554C11.3352 31.8882 10.8494 32.5526 11.1733 33.4826C11.3352 34.1469 11.983 34.5455 12.1449 34.6784C13.6023 36.1399 15.0597 37.6015 16.5171 39.063" fill="#C3E5B5"/>
<path d="M12.1315 32.5284C12.5584 32.1781 12.6206 31.548 12.2702 31.1211C11.9199 30.6941 11.2898 30.632 10.8628 30.9823L12.1315 32.5284ZM11.1733 33.4826L12.1448 33.2458L12.1335 33.1991L12.1177 33.1538L11.1733 33.4826ZM12.1449 34.6784L12.853 33.9723L12.8178 33.937L12.7792 33.9053L12.1449 34.6784ZM15.809 39.7691C16.1989 40.1602 16.8321 40.1611 17.2232 39.7711C17.6142 39.3811 17.6151 38.7479 17.2252 38.3569L15.809 39.7691ZM10.8628 30.9823C10.6166 31.1843 10.3578 31.5506 10.2059 31.9994C10.0413 32.4854 9.98598 33.1138 10.2289 33.8115L12.1177 33.1538C12.0367 32.9213 12.0624 32.7525 12.1002 32.6407C12.1209 32.5796 12.1468 32.5323 12.1664 32.5027C12.1935 32.4618 12.1907 32.4798 12.1315 32.5284L10.8628 30.9823ZM10.2017 33.7194C10.3439 34.3028 10.6863 34.7254 10.9575 34.9924C11.1938 35.225 11.5471 35.4814 11.5106 35.4515L12.7792 33.9053C12.7364 33.8702 12.6868 33.8336 12.6597 33.8135C12.6248 33.7875 12.5932 33.764 12.5587 33.7375C12.4908 33.685 12.4233 33.6289 12.3607 33.5672C12.2271 33.4357 12.1646 33.3268 12.1448 33.2458L10.2017 33.7194ZM11.4368 35.3845C12.1655 36.1153 12.8942 36.846 13.6229 37.5768C14.3516 38.3076 15.0803 39.0383 15.809 39.7691L17.2252 38.3569C16.4965 37.6261 15.7678 36.8953 15.0391 36.1646C14.3104 35.4338 13.5817 34.7031 12.853 33.9723L11.4368 35.3845Z" fill="#283864" mask="url(#path-7-inside-2_1161_115)"/>
<path d="M52.6136 20.4615V21.2071L53.3034 20.9241C53.5226 20.8341 53.749 20.8286 54.0852 20.8286C54.7866 20.8286 55.3898 21.0582 55.8123 21.4448C56.2288 21.826 56.4988 22.3856 56.5 23.114L56.3382 31.2137L56.3381 31.2137V31.2237V31.2492L53.6293 37.2631L53.6292 37.2631L53.6249 37.2733C52.3607 40.2555 50.4664 42.847 47.7766 45.0539L46.4811 46.1169C46.3599 46.2163 46.2508 46.3509 46.1795 46.4389C46.1753 46.444 46.1713 46.449 46.1673 46.4539C46.0762 46.566 46.029 46.6207 45.9953 46.6483L45.9297 46.7022L45.8855 46.7747C45.7854 46.9391 45.7205 47.0866 45.685 47.232C45.6514 47.3702 45.6505 47.4844 45.6506 47.5538L45.6494 47.5772C45.6483 47.601 45.6466 47.6358 45.6447 47.6808C45.6408 47.7709 45.6357 47.9015 45.6306 48.0656C45.6203 48.3936 45.6101 48.8556 45.6101 49.3933C45.6101 50.4561 45.65 51.8306 45.8131 53.052C45.8198 53.2578 45.879 53.4721 45.9392 53.6533C45.9973 53.828 46.0711 54.0134 46.1416 54.1873C46.1581 54.3662 46.2102 54.523 46.2451 54.6233C46.2557 54.6537 46.2641 54.677 46.2711 54.6967C46.2815 54.7255 46.2889 54.7464 46.2965 54.7702C46.2971 54.7721 46.2977 54.7739 46.2982 54.7756C46.2975 54.893 46.2913 55.0012 46.2492 55.1137C46.2088 55.2213 46.1234 55.3623 45.9046 55.5011C45.3365 55.7862 44.248 56.0411 42.8286 56.2216C41.4155 56.4012 39.7365 56.4999 38.054 56.4999C36.5277 56.4999 35.0097 56.4339 33.7391 56.2873C32.4706 56.1409 31.5302 55.922 31.0531 55.6574C30.8002 55.4438 30.7042 55.2842 30.6635 55.1841C30.6218 55.0814 30.6193 55 30.6193 54.874C30.6193 54.597 30.6284 54.4679 30.7082 54.337L30.7411 54.283L30.7595 54.2226C31.0903 53.1369 31.5909 51.4892 31.5909 48.6293C31.5909 47.3789 31.4198 46.2657 30.9222 44.765C30.3202 42.5253 30.9514 40.5506 32.6263 39.6344L32.6264 39.6345L32.6376 39.628L36.524 37.3693L36.588 37.3321L36.6385 37.2779L40.8487 32.7604L40.8603 32.748L40.871 32.7348C41.9839 31.3651 43.6523 31.3515 44.7889 31.9344L44.8963 31.9894H44.9827C44.9868 31.9917 44.9919 31.9946 44.9979 31.9983C45.0445 32.027 45.0984 32.0701 45.1857 32.1417L45.654 32.526L45.9425 31.9933L47.2379 29.6017L47.2983 29.4903V29.3636V20.4615C47.2983 19.8142 47.5545 19.3288 47.9787 18.9937C48.4153 18.6487 49.0658 18.437 49.875 18.437C50.759 18.437 51.4521 18.6788 51.9128 19.0433C52.3661 19.4019 52.6136 19.8915 52.6136 20.4615ZM46.3032 54.7935C46.3031 54.7934 46.303 54.7927 46.3027 54.7914L46.3032 54.7935ZM44.9686 31.9825C44.9686 31.9825 44.9689 31.9826 44.9696 31.9829L44.9686 31.9825Z" fill="#C3E5B5" stroke="#283864" stroke-miterlimit="10"/>
<mask id="path-10-inside-3_1161_115" fill="white">
<path d="M53.1136 20.4617L52.7898 29.098L51.0085 33.4826L48.0937 37.4685"/>
</mask>
<path d="M53.1136 20.4617L52.7898 29.098L51.0085 33.4826L48.0937 37.4685" fill="#C3E5B5"/>
<path d="M52.7898 29.098L53.7162 29.4744L53.7825 29.3113L53.7891 29.1354L52.7898 29.098ZM51.0085 33.4826L51.8157 34.0728L51.8885 33.9732L51.935 33.8589L51.0085 33.4826ZM52.1143 20.4242L51.7905 29.0605L53.7891 29.1354L54.1129 20.4991L52.1143 20.4242ZM51.8633 28.7216L50.0821 33.1062L51.935 33.8589L53.7162 29.4744L51.8633 28.7216ZM50.2013 32.8923L47.2865 36.8783L48.9009 38.0588L51.8157 34.0728L50.2013 32.8923Z" fill="#283864" mask="url(#path-10-inside-3_1161_115)"/>
<mask id="path-12-inside-4_1161_115" fill="white">
<path d="M45.5028 31.7554C45.6648 31.8882 46.1506 32.5526 45.8267 33.4826C45.6648 34.1469 45.0171 34.5455 44.8551 34.6784C43.3977 36.1399 41.9403 37.6015 40.4829 39.063"/>
</mask>
<path d="M45.5028 31.7554C45.6648 31.8882 46.1506 32.5526 45.8267 33.4826C45.6648 34.1469 45.0171 34.5455 44.8551 34.6784C43.3977 36.1399 41.9403 37.6015 40.4829 39.063" fill="#C3E5B5"/>
<path d="M46.1372 30.9823C45.7102 30.632 45.0801 30.6941 44.7298 31.1211C44.3794 31.548 44.4416 32.1781 44.8685 32.5284L46.1372 30.9823ZM45.8267 33.4826L44.8823 33.1538L44.8665 33.1991L44.8552 33.2458L45.8267 33.4826ZM44.8551 34.6784L44.2208 33.9053L44.1822 33.937L44.147 33.9723L44.8551 34.6784ZM39.7748 38.3569C39.3849 38.7479 39.3858 39.3811 39.7768 39.7711C40.1679 40.1611 40.8011 40.1602 41.191 39.7691L39.7748 38.3569ZM44.8685 32.5284C44.8093 32.4798 44.8065 32.4618 44.8336 32.5027C44.8532 32.5323 44.8791 32.5796 44.8998 32.6407C44.9376 32.7525 44.9633 32.9213 44.8823 33.1538L46.7711 33.8115C47.014 33.1138 46.9587 32.4854 46.7941 31.9994C46.6422 31.5506 46.3834 31.1843 46.1372 30.9823L44.8685 32.5284ZM44.8552 33.2458C44.8354 33.3268 44.7729 33.4357 44.6393 33.5672C44.5767 33.6289 44.5092 33.685 44.4413 33.7375C44.4068 33.764 44.3752 33.7875 44.3403 33.8135C44.3132 33.8336 44.2636 33.8702 44.2208 33.9053L45.4894 35.4515C45.4529 35.4814 45.8062 35.225 46.0425 34.9924C46.3137 34.7254 46.6561 34.3028 46.7983 33.7194L44.8552 33.2458ZM44.147 33.9723C43.4183 34.7031 42.6896 35.4338 41.9609 36.1646C41.2322 36.8953 40.5035 37.6261 39.7748 38.3569L41.191 39.7691C41.9197 39.0383 42.6484 38.3076 43.3771 37.5768C44.1058 36.846 44.8345 36.1153 45.5632 35.3845L44.147 33.9723Z" fill="#283864" mask="url(#path-12-inside-4_1161_115)"/>
</svg>
