<svg width="245" height="63" fill="none" xmlns="http://www.w3.org/2000/svg"><path fill-rule="evenodd" clip-rule="evenodd" d="M26.4 56.9c4.5 0 6.4-4.8 5.3-7.3-.6-1.5-4.3-6.4-5.4-8-1.7 2.5-3.4 5-4.9 7.6-1.7 2.8.6 7.7 5 7.7Zm13.2-40.3c-4.9 3.2-10.2 5.9-15.2 10C18.2 31.7 12.7 38.4 9.2 44H18.6c.7-1.1 1.5-2.4 2.3-3.6 1.7-2.6 3.5-5 5.2-7.6 0 0 2.5 3.4 5 6.9l1.4 2c5.7-3.2 9.5-9.2 9.5-16 0-3.3-.9-6.4-2.4-9.1ZM40.7 9c4.2-2.8 6.8-4.8 9.5-9C52.8 2.5 54 4 54 4c-2.1 3.9-4.8 5.9-9.9 9.5 2.2 3.6 3.4 7.8 3.4 12.3 0 8.8-4.8 16.5-11.9 20.6.6.9.9 1.6 1.1 2 1.9 5.8-1.9 14-10.2 14-7.2 0-12-6.4-10.6-12.8H0V25.8C0 12.6 10.6 2 23.8 2c6.6 0 12.6 2.7 16.9 7ZM5.5 39c3.6-5.8 9.2-12 15.2-17 5-4.1 10.4-6.7 15.3-9.8-3.2-2.9-7.5-4.7-12.3-4.7-10.1 0-18.3 8.2-18.3 18.3V39h.1Z" fill="#283864"/><path d="M85 12.4V47h-5.1V12.4H68V8.7h29v3.7H85ZM103.7 33.1c.1 7.6 2.2 11.1 7.7 11.1 2.4 0 5.1-.8 7.7-2l1.2 3.4c-2.9 1.3-6 2.2-9.3 2.2-8.9 0-11.9-5.8-11.9-14.4 0-8.8 3.1-14.9 11.6-14.9 8.1 0 10.2 5.6 10.2 11.8 0 1.1-.1 2-.2 2.9h-17v-.1Zm.1-2.9h12.4c.1-5.3-1.2-8.6-5.7-8.6-4.2-.1-6.2 2.9-6.7 8.6ZM146.1 46c-1.9.9-5.1 1.6-7.9 1.6-7.6 0-11.6-5-11.6-14.4 0-10 4.5-14.6 12.2-14.6 1.8 0 4.7.2 7.2 1.2l-1.1 3.7c-2.2-1.1-4.5-1.4-5.9-1.4-4.1 0-7.2 2.8-7.2 10.6 0 7.4 2.7 11.3 7.3 11.3 1.5 0 3.8-.5 5.9-1.4l1.1 3.4ZM166.1 47l-.5-2.7c-2 1.2-4.7 3.3-8.4 3.3-4.9 0-7.2-3.5-7.2-7.5 0-6.2 6.6-7.9 14.8-8.2v-5.3c0-3.8-1.6-4.9-4.4-4.9-2 0-4.6.6-7.8 2l-1.1-3.4c2.8-.9 5.9-2 9.6-2 6.5 0 8.7 3.1 8.7 8.2v12.6c0 2.9.4 5.7.6 7.9h-4.3Zm-1.3-12.3c-4.5.1-10.1.6-10.1 4.9 0 2.8 1.6 4.7 4.2 4.7 1.6 0 3.3-.9 5.9-2.6v-7ZM194.3 47V22.6h-8.5l-1.2 13c-.6 6.3-2.9 10.3-8.9 12.3l-2-3.3c3.8-1.4 5.7-4.1 6.2-9.5l1.4-16h18v28h-5V47ZM211.1 13c-1.9 0-3.2-1.2-3.2-3 0-1.7 1.4-3 3.2-3 1.9 0 3.3 1.3 3.3 3s-1.5 3-3.3 3Zm-2.6 34V19h5.1v28h-5.1ZM239.9 47V34h-11.8v13H223V19h5.1v11.4h11.8V19h5.1v28h-5.1Z" fill="#283864"/></svg>