<svg width="245" height="63" viewBox="0 0 245 63" fill="none" xmlns="http://www.w3.org/2000/svg">
<path fill-rule="evenodd" clip-rule="evenodd" d="M26.4 56.9C30.9 56.9 32.8 52.1 31.7 49.6C31.1 48.1 27.4 43.2 26.3 41.6C24.6 44.1 22.9 46.6 21.4 49.2C19.7 52 22 56.9 26.4 56.9ZM39.6 16.6C34.7 19.8 29.4 22.5 24.4 26.6C18.2 31.7 12.7 38.4 9.2 44H14.8H18.6C19.3 42.9 20.1 41.6 20.9 40.4C22.6 37.8 24.4 35.4 26.1 32.8C26.1 32.8 28.6 36.2 31.1 39.7L32.5 41.7C38.2 38.5 42 32.5 42 25.7C42 22.4 41.1 19.3 39.6 16.6ZM40.7 9C44.9 6.2 47.5 4.2 50.2 0C52.8 2.5 54 4 54 4C51.9 7.9 49.2 9.9 44.1 13.5C46.3 17.1 47.5 21.3 47.5 25.8C47.5 34.6 42.7 42.3 35.6 46.4C36.2 47.3 36.5 48 36.7 48.4C38.6 54.2 34.8 62.4 26.5 62.4C19.3 62.4 14.5 56 15.9 49.6H14.8H0V25.8C0 12.6 10.6 2 23.8 2C30.4 2 36.4 4.7 40.7 9ZM5.5 39C9.1 33.2 14.7 27 20.7 22C25.7 17.9 31.1 15.3 36 12.2C32.8 9.3 28.5 7.5 23.7 7.5C13.6 7.5 5.4 15.7 5.4 25.8V39H5.5Z" fill="#283864"/>
<path d="M85 12.4V47H79.9V12.4H68V8.69995H97V12.4H85Z" fill="#283864"/>
<path d="M103.7 33.1C103.8 40.7 105.9 44.2 111.4 44.2C113.8 44.2 116.5 43.4 119.1 42.2L120.3 45.6C117.4 46.9 114.3 47.8 111 47.8C102.1 47.8 99.1 42 99.1 33.4C99.1 24.6 102.2 18.5 110.7 18.5C118.8 18.5 120.9 24.1 120.9 30.3C120.9 31.4 120.8 32.3 120.7 33.2H103.7V33.1ZM103.8 30.2H116.2C116.3 24.9 115 21.6 110.5 21.6C106.3 21.5 104.3 24.5 103.8 30.2Z" fill="#283864"/>
<path d="M146.1 46.0001C144.2 46.9001 141 47.6001 138.2 47.6001C130.6 47.6001 126.6 42.6001 126.6 33.2001C126.6 23.2001 131.1 18.6001 138.8 18.6001C140.6 18.6001 143.5 18.8001 146 19.8001L144.9 23.5001C142.7 22.4001 140.4 22.1001 139 22.1001C134.9 22.1001 131.8 24.9001 131.8 32.7001C131.8 40.1001 134.5 44.0001 139.1 44.0001C140.6 44.0001 142.9 43.5001 145 42.6001L146.1 46.0001Z" fill="#283864"/>
<path d="M166.1 47L165.6 44.3C163.6 45.5 160.9 47.6 157.2 47.6C152.3 47.6 150 44.1 150 40.1C150 33.9 156.6 32.2 164.8 31.9V26.6C164.8 22.8 163.2 21.7 160.4 21.7C158.4 21.7 155.8 22.3 152.6 23.7L151.5 20.3C154.3 19.4 157.4 18.3 161.1 18.3C167.6 18.3 169.8 21.4 169.8 26.5V39.1C169.8 42 170.2 44.8 170.4 47H166.1ZM164.8 34.7001C160.3 34.8001 154.7 35.3 154.7 39.6C154.7 42.4 156.3 44.3 158.9 44.3C160.5 44.3 162.2 43.4001 164.8 41.7001V34.7001Z" fill="#283864"/>
<path d="M194.3 47.0001V22.6001H185.8L184.6 35.6001C184 41.9001 181.7 45.9001 175.7 47.9001L173.7 44.6001C177.5 43.2001 179.4 40.5001 179.9 35.1001L181.3 19.1001H199.3V47.1001H194.3V47.0001Z" fill="#283864"/>
<path d="M211.1 13C209.2 13 207.9 11.8 207.9 10C207.9 8.3 209.3 7 211.1 7C213 7 214.4 8.3 214.4 10C214.4 11.7 212.9 13 211.1 13ZM208.5 47V19H213.6V47H208.5Z" fill="#283864"/>
<path d="M239.9 47V34H228.1V47H223V19H228.1V30.4H239.9V19H245V47H239.9Z" fill="#283864"/>
</svg>
