<svg width="76" height="76" viewBox="0 0 76 76" fill="none" xmlns="http://www.w3.org/2000/svg">
<path d="M28.7452 75.0001C44.0685 75.0001 56.4904 62.6163 56.4904 47.3401C56.4904 32.0639 44.0685 19.6801 28.7452 19.6801C13.422 19.6801 1 32.0639 1 47.3401C1 62.6163 13.422 75.0001 28.7452 75.0001Z" stroke="#283864" stroke-miterlimit="10"></path>
<path d="M28.7452 66.4404C39.3265 66.4404 47.9044 57.8889 47.9044 47.3401C47.9044 36.7913 39.3265 28.2397 28.7452 28.2397C18.1639 28.2397 9.586 36.7913 9.586 47.3401C9.586 57.8889 18.1639 66.4404 28.7452 66.4404Z" stroke="#283864" stroke-miterlimit="10"></path>
<path d="M28.7451 57.3201C34.2739 57.3201 38.7559 52.8519 38.7559 47.3401C38.7559 41.8283 34.2739 37.3601 28.7451 37.3601C23.2163 37.3601 18.7344 41.8283 18.7344 47.3401C18.7344 52.8519 23.2163 57.3201 28.7451 57.3201Z" stroke="#283864" stroke-miterlimit="10"></path>
<path d="M29.0827 46.7047L50.6789 25.1748" stroke="#283864" stroke-miterlimit="10"></path>
<path d="M74 12.9145L64.964 11.0082L63.1644 2L48.6918 16.316L50.529 25.2868L50.4915 25.3242H50.529L59.565 27.1931L74 12.9145Z" stroke="#283864" stroke-miterlimit="10"></path>
<path d="M28.7453 48.3866C29.3251 48.3866 29.7951 47.918 29.7951 47.34C29.7951 46.762 29.3251 46.2935 28.7453 46.2935C28.1655 46.2935 27.6954 46.762 27.6954 47.34C27.6954 47.918 28.1655 48.3866 28.7453 48.3866Z" fill="#283864"></path>
</svg>
