<svg width="76" height="76" fill="none" xmlns="http://www.w3.org/2000/svg"><path d="M28.745 75C44.068 75 56.49 62.616 56.49 47.34S44.068 19.68 28.745 19.68 1 32.064 1 47.34 13.422 75 28.745 75Z" stroke="#283864" stroke-miterlimit="10"/><path d="M28.745 66.44c10.582 0 19.16-8.551 19.16-19.1 0-10.549-8.578-19.1-19.16-19.1-10.581 0-19.159 8.551-19.159 19.1 0 10.549 8.578 19.1 19.16 19.1Z" stroke="#283864" stroke-miterlimit="10"/><path d="M28.745 57.32c5.529 0 10.01-4.468 10.01-9.98 0-5.512-4.481-9.98-10.01-9.98s-10.01 4.468-10.01 9.98c0 5.512 4.481 9.98 10.01 9.98ZM29.083 46.705l21.596-21.53M74 12.915l-9.036-1.907L63.164 2 48.692 16.316l1.837 8.97-.038.038h.038l9.036 1.87L74 12.913Z" stroke="#283864" stroke-miterlimit="10"/><path d="M28.745 48.387c.58 0 1.05-.469 1.05-1.047s-.47-1.047-1.05-1.047c-.58 0-1.05.469-1.05 1.047s.47 1.047 1.05 1.047Z" fill="#283864"/></svg>