<svg width="217" height="48" viewBox="0 0 217 48" fill="none" xmlns="http://www.w3.org/2000/svg">
<path d="M0.956426 40.3369C-0.00123757 43.1224 1.48051 46.1568 4.266 47.1145C7.05149 48.0722 10.0859 46.5904 11.0436 43.8049C12.0012 41.0194 10.5195 37.985 7.73401 37.0273C4.94852 36.0697 1.91409 37.5514 0.956426 40.3369ZM205.735 15.819C204.777 18.6045 206.259 21.6389 209.044 22.5966C211.83 23.5543 214.864 22.0725 215.822 19.287C216.78 16.5015 215.298 13.4671 212.512 12.5095C209.727 11.5518 206.693 13.0335 205.735 15.819ZM5.82748 43.0559C64.3056 53.2985 96.7164 24.0946 117.453 14.0934L116.585 12.292C95.3733 22.522 63.8244 51.1838 6.17253 41.0859L5.82748 43.0559ZM117.453 14.0934C138.318 4.03089 175.406 -6.98173 210.19 18.3613L211.367 16.7448C175.674 -9.26088 137.669 2.12322 116.585 12.292L117.453 14.0934Z" fill="#283864"></path>
</svg>
