<svg width="217" height="48" fill="none" xmlns="http://www.w3.org/2000/svg"><path d="M.956 40.337a5.333 5.333 0 1 0 10.088 3.468A5.333 5.333 0 0 0 .956 40.337Zm204.779-24.518a5.333 5.333 0 1 0 10.087 3.469 5.333 5.333 0 0 0-10.087-3.469ZM5.827 43.056c58.479 10.242 90.89-18.961 111.626-28.963l-.868-1.801C95.373 22.522 63.825 51.184 6.173 41.086l-.346 1.97Zm111.626-28.963c20.865-10.062 57.953-21.075 92.737 4.268l1.177-1.616c-35.693-26.006-73.698-14.622-94.782-4.453l.868 1.801Z" fill="#283864"/></svg>