<svg width="154" height="93" viewBox="0 0 154 93" fill="none" xmlns="http://www.w3.org/2000/svg">
<path d="M0.297765 87.325C0.651913 90.2491 3.3095 92.3325 6.23365 91.9784C9.1578 91.6242 11.2412 88.9667 10.8871 86.0425C10.5329 83.1184 7.87532 81.035 4.95117 81.3891C2.02702 81.7433 -0.0563836 84.4008 0.297765 87.325ZM143.124 6.56673C143.478 9.49088 146.136 11.5743 149.06 11.2201C151.984 10.866 154.067 8.2084 153.713 5.28425C153.359 2.36009 150.702 0.276694 147.777 0.630844C144.853 0.984993 142.77 3.64258 143.124 6.56673ZM5.84612 87.651C52.5879 75.3911 66.5473 46.6778 78.4115 33.8066L76.941 32.4511C64.7664 45.6589 51.3448 73.6495 5.3387 85.7165L5.84612 87.651ZM78.4115 33.8066C90.333 20.8734 113.917 2.13537 148.281 6.91595L148.556 4.93503C113.25 0.0232575 89.0584 19.3053 76.941 32.4511L78.4115 33.8066Z" fill="#283864"></path>
</svg>
