<svg width="57" height="57" fill="none" xmlns="http://www.w3.org/2000/svg"><path d="M32.71 40.689h-8.096c-4.847 0-8.73-3.191-8.73-7.074V23.517c0-3.76 3.733-7.073 8.73-7.073h8.096c4.847 0 8.73 3.19 8.73 7.073v10.098c0 3.755-3.889 7.074-8.73 7.074ZM36.42 6.776c0 3.379-3.376 6.277-7.758 6.277s-7.759-2.898-7.759-6.277C20.903 3.398 24.28.5 28.662.5c4.382 0 7.758 2.898 7.758 6.276Z" fill="#C3E5B5" stroke="#283864" stroke-miterlimit="10"/><path d="M42.912 27.77h-29.31v14.349h29.31v-14.35Z" fill="#C3E5B5"/><path d="M11.35 47.284a.728.728 0 0 0-.082-.31 1.315 1.315 0 0 0-.116-.184 6.85 6.85 0 0 0-.06-.08c-.049-.066-.091-.122-.14-.201l-.044-.073-.065-.053a1.596 1.596 0 0 1-.172-.195l-.012-.015c-.072-.088-.18-.223-.302-.322l-1.29-1.058c-2.544-2.22-4.595-4.816-5.854-7.785L.662 30.989v-.041l-.162-8.1c.003-1.128 1.015-2.02 2.253-2.02.336 0 .562.006.782.096l.613.252.073-.66c.128-1.155 1.16-2.079 2.742-2.079.883 0 1.528.241 1.943.595.408.348.634.837.634 1.43V29.49l.06.112 1.296 2.391.141.262h.298c.216 0 .39-.087.505-.157a2.43 2.43 0 0 0 .255-.187c1.11-.543 2.77-.419 3.886.84l.008.01 4.21 4.517.063.067.082.04 4.039 1.989c1.694.932 2.442 2.918 1.7 5.109v.003c-.5 1.504-.672 2.749-.674 3.864-.154 2.825.427 4.466.771 5.437l.04.115c.012.23.064.396.108.522.05.143.053.154.053.184v.14l.073.12c.006.01.023.05-.001.113-.023.062-.112.213-.44.374l-.017.009-.016.009c-.466.273-1.42.499-2.72.649-1.27.146-2.788.212-4.314.212a39.08 39.08 0 0 1-4.775-.278c-1.414-.18-2.5-.434-3.07-.718-.326-.219-.386-.361-.4-.41a.339.339 0 0 1-.012-.113c0-.027.003-.053.005-.091v-.005l.001-.001c.003-.035.007-.088.007-.143 0-.144.002-.191.01-.232a.53.53 0 0 1 .079-.172l.02-.034.016-.038.003-.008c.079-.194.165-.405.23-.603.061-.182.12-.396.127-.602.163-1.221.203-2.596.203-3.659a42.814 42.814 0 0 0-.035-1.712l-.004-.104-.002-.027Z" fill="#C3E5B5" stroke="#283864" stroke-miterlimit="10"/><mask id="path-5-inside-1_1161_115" fill="#fff"><path d="m3.886 20.462.324 8.636 1.781 4.385 2.915 3.986"/></mask><path d="m3.886 20.462.324 8.636 1.781 4.385 2.915 3.986" fill="#C3E5B5"/><path d="m4.21 29.098-1 .037.008.176.066.163.926-.376Zm1.781 4.385-.926.376.046.114.073.1.807-.59ZM2.887 20.499l.324 8.636 1.999-.075-.324-8.636-1.999.075Zm.397 8.975 1.781 4.385 1.853-.753-1.781-4.384-1.853.752Zm1.9 4.599L8.1 38.059l1.614-1.18L6.8 32.891l-1.615 1.18Z" fill="#283864" mask="url('#path-5-inside-1_1161_115')"/><mask id="path-7-inside-2_1161_115" fill="#fff"><path d="M11.497 31.755c-.162.133-.648.798-.324 1.728.162.664.81 1.063.972 1.195l4.372 4.385"/></mask><path d="M11.497 31.755c-.162.133-.648.798-.324 1.728.162.664.81 1.063.972 1.195l4.372 4.385" fill="#C3E5B5"/><path d="M12.132 32.528a1 1 0 1 0-1.27-1.546l1.27 1.546Zm-.959.955.972-.237-.011-.047-.016-.045-.945.329Zm.972 1.195.708-.706-.035-.035-.039-.032-.634.773Zm3.664 5.091a1 1 0 1 0 1.416-1.412l-1.416 1.412Zm-4.946-8.787c-.246.202-.505.569-.657 1.017a2.76 2.76 0 0 0 .023 1.813l1.889-.658a.764.764 0 0 1-.018-.513.608.608 0 0 1 .066-.138c.027-.041.025-.023-.034.025l-1.27-1.546Zm-.661 2.737c.142.584.484 1.006.755 1.273.237.233.59.49.554.46l1.268-1.547c-.043-.035-.092-.071-.12-.092l-.1-.076a2.181 2.181 0 0 1-.198-.17c-.134-.131-.196-.24-.216-.321l-1.943.473Zm1.235 1.666 2.186 2.192 2.186 2.192 1.416-1.412-2.186-2.192-2.186-2.193-1.416 1.413Z" fill="#283864" mask="url('#path-7-inside-2_1161_115')"/><path d="M52.614 20.462v.745l.69-.283c.219-.09.445-.095.781-.095.702 0 1.305.23 1.727.616.417.381.687.94.688 1.669l-.162 8.1v.035l-2.709 6.014-.004.01c-1.264 2.982-3.159 5.574-5.848 7.78l-1.296 1.064c-.121.1-.23.234-.302.322l-.012.015a1.582 1.582 0 0 1-.172.194l-.065.054-.044.073c-.1.164-.166.312-.201.457a1.3 1.3 0 0 0-.034.322l-.002.023-.004.104c-.004.09-.01.22-.014.385-.01.328-.02.79-.02 1.327 0 1.063.039 2.438.202 3.659.007.206.066.42.126.601.058.175.132.36.203.534.016.18.068.336.103.436l.026.074.026.073.001.006a.941.941 0 0 1-.049.338c-.04.107-.126.248-.344.387-.569.285-1.657.54-3.076.72a39.08 39.08 0 0 1-4.775.279c-1.526 0-3.044-.066-4.315-.213-1.268-.146-2.209-.365-2.686-.63-.253-.213-.349-.373-.39-.473a.74.74 0 0 1-.044-.31c0-.277.01-.406.09-.537l.032-.054.018-.06c.331-1.086.832-2.734.832-5.594 0-1.25-.171-2.363-.669-3.864-.602-2.24.03-4.214 1.704-5.13l.012-.007 3.886-2.259.064-.037.05-.054 4.21-4.518.012-.012.011-.013c1.113-1.37 2.781-1.383 3.918-.8l.107.054h.087l.015.01c.047.028.1.071.188.143l.468.384.288-.533 1.296-2.391.06-.112V20.462c0-.648.256-1.133.68-1.468.437-.345 1.088-.557 1.897-.557.884 0 1.577.242 2.038.606.453.359.7.849.7 1.419Zm-6.31 34.332-.001-.003v.003Zm-1.335-22.811Z" fill="#C3E5B5" stroke="#283864" stroke-miterlimit="10"/><mask id="path-10-inside-3_1161_115" fill="#fff"><path d="m53.114 20.462-.324 8.636-1.782 4.385-2.914 3.986"/></mask><path d="m53.114 20.462-.324 8.636-1.782 4.385-2.914 3.986" fill="#C3E5B5"/><path d="m52.79 29.098.926.376.066-.163.007-.176-1-.037Zm-1.782 4.385.808.59.072-.1.047-.114-.927-.376Zm1.106-13.059-.323 8.637 1.998.074.324-8.636-1.999-.075Zm-.25 8.298-1.782 4.384 1.853.753 1.781-4.385-1.853-.752Zm-1.663 4.17-2.915 3.986 1.615 1.18 2.915-3.985-1.615-1.18Z" fill="#283864" mask="url('#path-10-inside-3_1161_115')"/><mask id="path-12-inside-4_1161_115" fill="#fff"><path d="M45.503 31.755c.162.133.648.798.324 1.728-.162.664-.81 1.063-.972 1.195l-4.372 4.385"/></mask><path d="M45.503 31.755c.162.133.648.798.324 1.728-.162.664-.81 1.063-.972 1.195l-4.372 4.385" fill="#C3E5B5"/><path d="M46.137 30.982a1 1 0 0 0-1.269 1.546l1.27-1.546Zm-.31 2.5-.945-.328-.015.045-.012.047.972.237Zm-.972 1.196-.634-.773-.039.032-.035.035.708.706Zm-5.08 3.679a1 1 0 0 0 1.416 1.412l-1.416-1.412Zm5.093-5.829c-.059-.048-.062-.066-.034-.025.02.03.045.077.066.138a.764.764 0 0 1-.018.513l1.89.657A2.76 2.76 0 0 0 46.793 32c-.152-.448-.41-.815-.657-1.017l-1.269 1.546Zm-.013.718c-.02.08-.082.19-.216.321-.062.062-.13.118-.198.17l-.1.076c-.028.02-.077.057-.12.092l1.268 1.547c-.036.03.317-.227.553-.46.272-.267.614-.69.756-1.273l-1.943-.473Zm-.708.726-2.186 2.193-2.186 2.192 1.416 1.412 2.186-2.192 2.186-2.192-1.416-1.413Z" fill="#283864" mask="url('#path-12-inside-4_1161_115')"/></svg>