<svg width="64" height="62" fill="none" xmlns="http://www.w3.org/2000/svg"><path d="M14.316 36.275 9.579 34.08 5 36.42l.79-4.827L2 28.228l5.21-.732 2.211-4.389 2.369 4.39 5.21.584-3.632 3.365.948 4.829ZM59.287 36.275 54.66 34.08l-4.628 2.34.798-4.827L47 28.228l5.106-.732 2.394-4.389 2.394 4.39L62 28.08l-3.67 3.365.957 4.829Z" fill="#C3E5B5" stroke="#283864" stroke-miterlimit="10"/><path d="m25.423 39.354-6.342-2.777-6.179 2.916 1.139-5.971L9 29.495l6.83-.972 3.089-5.416 3.09 5.277 6.991.833-4.878 4.166 1.3 5.971ZM52.105 39.354l-6.436-2.777-6.435 2.916 1.016-5.971L35 29.495l7.282-.972 3.049-5.416 3.387 5.277 7.282.833-5.25 4.166 1.355 5.971Z" fill="#C3E5B5" stroke="#283864" stroke-miterlimit="10"/><path d="m41.575 45.49-9.415-4.438-9.256 4.586 1.756-9.615L17 29.366l10.372-1.628 4.468-8.727 4.788 8.727L47 28.922l-7.34 6.953 1.915 9.615Z" fill="#C3E5B5" stroke="#283864" stroke-miterlimit="10"/><path d="M30.948 8.788V1M18.969 8.356l-2.59-4.471M44.384 9.221l2.266-5.336M3.428 10.664l5.018 4.326M54.097 14.99l4.37-4.038M31 52.807V61M43 53.831l3 4.097M18 52.807l-2 5.12M59 51.783l-5-5.12M8 46.662 4 50.76" stroke="#283864" stroke-miterlimit="10" stroke-linecap="round"/></svg>