<svg width="64" height="62" viewBox="0 0 64 62" fill="none" xmlns="http://www.w3.org/2000/svg">
<path d="M14.3158 36.2745L9.57895 34.0799L5 36.4208L5.78947 31.5927L2 28.2277L7.21053 27.4962L9.42105 23.1071L11.7895 27.4962L17 28.0814L13.3684 31.4464L14.3158 36.2745Z" fill="#C3E5B5" stroke="#283864" stroke-miterlimit="10"></path>
<path d="M59.2872 36.2745L54.6596 34.0799L50.0319 36.4208L50.8298 31.5927L47 28.2277L52.1064 27.4962L54.5 23.1071L56.8936 27.4962L62 28.0814L58.3298 31.4464L59.2872 36.2745Z" fill="#C3E5B5" stroke="#283864" stroke-miterlimit="10"></path>
<path d="M25.4228 39.3543L19.0813 36.577L12.9024 39.4932L14.0407 33.522L9 29.4949L15.8293 28.5228L18.9187 23.1071L22.0081 28.3839L29 29.2171L24.122 33.3831L25.4228 39.3543Z" fill="#C3E5B5" stroke="#283864" stroke-miterlimit="10"></path>
<path d="M52.1048 39.3543L45.6694 36.577L39.2339 39.4932L40.25 33.522L35 29.4949L42.2823 28.5228L45.3306 23.1071L48.7177 28.3839L56 29.2171L50.75 33.3831L52.1048 39.3543Z" fill="#C3E5B5" stroke="#283864" stroke-miterlimit="10"></path>
<path d="M41.5745 45.4901L32.1596 41.0522L22.9043 45.6381L24.6596 36.0226L17 29.3657L27.3723 27.7385L31.8404 19.0106L36.6277 27.7385L47 28.9219L39.6596 35.8747L41.5745 45.4901Z" fill="#C3E5B5" stroke="#283864" stroke-miterlimit="10"></path>
<path d="M30.9478 8.78842V1" stroke="#283864" stroke-miterlimit="10" stroke-linecap="round"></path>
<path d="M18.9687 8.35579L16.3786 3.88464" stroke="#283864" stroke-miterlimit="10" stroke-linecap="round"></path>
<path d="M44.3838 9.22115L46.6501 3.88464" stroke="#283864" stroke-miterlimit="10" stroke-linecap="round"></path>
<path d="M3.42819 10.6635L8.44647 14.9903" stroke="#283864" stroke-miterlimit="10" stroke-linecap="round"></path>
<path d="M54.0966 14.9903L58.4673 10.9518" stroke="#283864" stroke-miterlimit="10" stroke-linecap="round"></path>
<path d="M31 52.8069V60.9999" stroke="#283864" stroke-miterlimit="10" stroke-linecap="round"></path>
<path d="M43 53.8311L46 57.9276" stroke="#283864" stroke-miterlimit="10" stroke-linecap="round"></path>
<path d="M18 52.8069L16 57.9275" stroke="#283864" stroke-miterlimit="10" stroke-linecap="round"></path>
<path d="M59 51.7828L54 46.6621" stroke="#283864" stroke-miterlimit="10" stroke-linecap="round"></path>
<path d="M8 46.6621L4 50.7586" stroke="#283864" stroke-miterlimit="10" stroke-linecap="round"></path>
</svg>
